<svg width="24" height="24" xmlns="http://www.w3.org/2000/svg">

 <g>
  <title>background</title>
  <rect fill="none" id="canvas_background" height="402" width="582" y="-1" x="-1"/>
 </g>
 <g>
  <title>Layer 1</title>
  <path fill="#ffffff" id="svg_1" fill-rule="evenodd" d="m10.825091,2l2.348802,0c1.675267,0.003791 2.059917,0.018546 2.948805,0.059103c1.064443,0.04855 1.791419,0.21762 2.427529,0.464855c0.657625,0.255532 1.215332,0.597484 1.771332,1.153444c0.55596,0.556 0.897913,1.113708 1.153484,1.771333c0.247195,0.636109 0.416266,1.363085 0.464815,2.427528c0.047047,1.03111 0.059373,1.383718 0.060142,3.85944l0,0.527591c-0.000769,2.475686 -0.013095,2.828294 -0.060142,3.859404c-0.048549,1.064443 -0.21762,1.791419 -0.464815,2.427529c-0.255571,0.657625 -0.597524,1.215332 -1.153484,1.771332c-0.556,0.55596 -1.113707,0.897913 -1.771332,1.153484c-0.63611,0.247195 -1.363086,0.416266 -2.427529,0.464815c-1.03111,0.047047 -1.383718,0.059372 -3.859404,0.060142l-0.527591,0c-2.475722,-0.00077 -2.82833,-0.013095 -3.85944,-0.060142c-1.064443,-0.048549 -1.791419,-0.21762 -2.427528,-0.464815c-0.657625,-0.255571 -1.215333,-0.597524 -1.771333,-1.153484c-0.55596,-0.556 -0.897912,-1.113707 -1.153444,-1.771332c-0.247235,-0.63611 -0.416305,-1.363086 -0.464855,-2.427529c-0.040557,-0.888888 -0.055312,-1.273538 -0.059103,-2.948805l0,-2.348802c0.003791,-1.67529 0.018546,-2.05994 0.059103,-2.948828c0.04855,-1.064443 0.21762,-1.791419 0.464855,-2.427528c0.255532,-0.657625 0.597484,-1.215333 1.153444,-1.771333c0.556,-0.55596 1.113708,-0.897912 1.771333,-1.153444c0.636109,-0.247235 1.363085,-0.416305 2.427528,-0.464855c0.888888,-0.040557 1.273538,-0.055312 2.948828,-0.059103l2.348802,0l-2.348802,0zm1.907955,1.801155l-1.467102,0c-2.007364,0.002086 -2.358481,0.01468 -3.307547,0.057981c-0.975045,0.044461 -1.504567,0.207379 -1.85696,0.344335c-0.4668,0.181416 -0.79994,0.398124 -1.149871,0.748095c-0.349971,0.349931 -0.566679,0.683071 -0.748095,1.149871c-0.136956,0.352393 -0.299874,0.881915 -0.344335,1.85696c-0.043301,0.949066 -0.055895,1.300183 -0.057981,3.307547l0,1.467102c0.002086,2.007336 0.01468,2.358452 0.057981,3.307519c0.044461,0.975044 0.207379,1.504566 0.344335,1.856959c0.181416,0.4668 0.398163,0.79994 0.748095,1.149871c0.349931,0.349972 0.683071,0.566679 1.149871,0.748096c0.352393,0.136955 0.881915,0.299873 1.85696,0.344334c1.054399,0.048113 1.370628,0.058315 4.041103,0.058315c2.670437,0 2.986705,-0.010202 4.041065,-0.058315c0.975044,-0.044461 1.504566,-0.207379 1.856959,-0.344334c0.4668,-0.181417 0.79994,-0.398124 1.149871,-0.748096c0.349971,-0.349931 0.566679,-0.683071 0.748096,-1.149871c0.136955,-0.352393 0.299873,-0.881915 0.344334,-1.856959c0.048113,-1.054519 0.058315,-1.370827 0.058315,-4.041064c0,-2.670278 -0.010202,-2.986586 -0.058315,-4.041104c-0.044461,-0.975045 -0.207379,-1.504567 -0.344334,-1.85696c-0.181417,-0.4668 -0.398125,-0.79994 -0.748096,-1.149871c-0.349931,-0.349971 -0.683071,-0.566679 -1.149871,-0.748095c-0.352393,-0.136956 -0.881915,-0.299874 -1.856959,-0.344335c-0.949067,-0.043301 -1.300183,-0.055895 -3.307519,-0.057981zm-0.733546,3.198046c2.761576,0 5.00026,2.238684 5.00026,5.000299c0,2.761576 -2.238684,5.00026 -5.00026,5.00026c-2.761615,0 -5.000299,-2.238684 -5.000299,-5.00026c0,-2.761615 2.238684,-5.000299 5.000299,-5.000299zm0,1.754482c-1.792632,0 -3.245817,1.453185 -3.245817,3.245817c0,1.792593 1.453185,3.245778 3.245817,3.245778c1.792593,0 3.245778,-1.453185 3.245778,-3.245778c0,-1.792632 -1.453185,-3.245817 -3.245778,-3.245817zm5.416929,-3.421242c0.690401,0 1.250091,0.55969 1.250091,1.250091c0,0.690401 -0.55969,1.250049 -1.250091,1.250049c-0.690359,0 -1.250049,-0.559648 -1.250049,-1.250049c0,-0.690401 0.55969,-1.250091 1.250049,-1.250091z"/>
 </g>
</svg>