<svg width="100" height="100" xmlns="http://www.w3.org/2000/svg">

 <g>
  <title>background</title>
  <rect fill="none" id="canvas_background" height="402" width="582" y="-1" x="-1"/>
 </g>
 <g>
  <title>Layer 1</title>
  <path fill="#ff0000" id="svg_2" d="m86.155506,19.977494l-71.888,0c-1.41,0 -2.556,1.147 -2.556,2.557l0,5.144c0,0.237 0.257,0.509 0.467,0.619l37.786,21.583c0.098,0.057 0.208,0.083 0.318,0.083c0.112,0 0.225,-0.029 0.324,-0.088l36.644,-21.557c0.206,-0.115 0.752,-0.419 0.957,-0.559c0.248,-0.169 0.504,-0.322 0.504,-0.625l0,-4.601c0,-1.409 -1.146,-2.556 -2.556,-2.556z"/>
  <path fill="#ff0000" id="svg_3" d="m88.181,35.646c-0.2,-0.116 -0.444,-0.111 -0.645,0.004l-20.737,12.201c-0.166,0.096 -0.281,0.266 -0.309,0.458c-0.025,0.191 0.035,0.386 0.164,0.527l20.74,22.357c0.123,0.133 0.291,0.204 0.467,0.204c0.079,0 0.159,-0.015 0.234,-0.043c0.245,-0.097 0.405,-0.332 0.405,-0.596l0,-34.557c0,-0.23 -0.121,-0.441 -0.319,-0.555z"/>
  <path fill="#ff0000" id="svg_4" d="m60.823,51.948c-0.204,-0.221 -0.532,-0.27 -0.791,-0.118l-8.312,4.891c-0.976,0.574 -2.226,0.579 -3.208,0.021l-7.315,-4.179c-0.242,-0.137 -0.547,-0.104 -0.751,0.086l-27.778,25.766c-0.148,0.138 -0.222,0.337 -0.2,0.538s0.139,0.381 0.314,0.482c0.432,0.254 0.849,0.375 1.273,0.375l71.153,0c0.255,0 0.485,-0.151 0.585,-0.385c0.102,-0.232 0.056,-0.503 -0.118,-0.689l-24.852,-26.788z"/>
  <path fill="#ff0000" id="svg_5" d="m34.334,49.601c0.15,-0.137 0.225,-0.339 0.203,-0.54c-0.022,-0.202 -0.142,-0.381 -0.318,-0.483l-21.766,-12.432c-0.194,-0.112 -0.439,-0.11 -0.637,0.004c-0.196,0.114 -0.316,0.325 -0.316,0.552l0,32.62c0,0.253 0.15,0.483 0.382,0.584c0.082,0.037 0.169,0.055 0.257,0.055c0.157,0 0.314,-0.059 0.434,-0.171l21.761,-20.189z"/>
 </g>
</svg>