<svg width="16" height="16" xmlns="http://www.w3.org/2000/svg">

 <g>
  <title>background</title>
  <rect fill="none" id="canvas_background" height="402" width="582" y="-1" x="-1"/>
 </g>
 <g>
  <title>Layer 1</title>
  <path fill="#ffffff" id="svg_1" d="m6.122,0.392a1.75,1.75 0 0 1 1.756,0l5.25,3.045c0.54,0.313 0.872,0.89 0.872,1.514l0,2.299a0.75,0.75 0 0 1 -1.5,0l0,-1.573l-4.75,2.755l0,6.384a1,1 0 0 1 -1.502,0.865l-5.376,-3.118a1.75,1.75 0 0 1 -0.872,-1.514l0,-6.098c0,-0.624 0.332,-1.2 0.872,-1.514l5.25,-3.045zm1.003,1.298l4.63,2.685l-4.755,2.758l-4.755,-2.758l4.63,-2.685a0.25,0.25 0 0 1 0.25,0zm-5.625,9.359l0,-5.372l4.75,2.755l0,5.516l-4.625,-2.683a0.25,0.25 0 0 1 -0.125,-0.216zm10.828,3.684a0.75,0.75 0 1 0 1.087,1.034l2.378,-2.5a0.75,0.75 0 0 0 0,-1.034l-2.378,-2.5a0.75,0.75 0 0 0 -1.087,1.034l1.173,1.233l-3.251,0a0.75,0.75 0 0 0 0,1.5l3.251,0l-1.173,1.233z" fill-rule="evenodd"/>
 </g>
</svg>